HIERARCHY
ROOT Hips
{
    OFFSET 0.000000 0.000000 0.000000
    CHANNELS 6 Xposition Yposition Zposition Zrotation Xrotation Yrotation
    JOINT Spine
    {
        OFFSET -0.000000 7.236184 0.000000
        CHANNELS 3 Zrotation Xrotation Yrotation
        JOINT Spine1
        {
            OFFSET -0.000000 20.420147 0.000000
            CHANNELS 3 Zrotation Xrotation Yrotation
            JOINT Neck
            {
                OFFSET -0.000000 20.336288 1.848754
                CHANNELS 3 Zrotation Xrotation Yrotation
                JOINT Head
                {
                    OFFSET -0.000000 12.354461 -1.764923
                    CHANNELS 3 Zrotation Xrotation Yrotation
                    End Site
                    {
                        OFFSET -0.000000 22.061537 0.000000
                    }
                }
            }
            JOINT LeftShoulder
            {
                OFFSET 3.573296 18.396038 -0.314103
                CHANNELS 3 Zrotation Xrotation Yrotation
                JOINT LeftArm
                {
                    OFFSET 10.880760 0.000000 0.000000
                    CHANNELS 3 Zrotation Xrotation Yrotation
                    JOINT LeftForeArm
                    {
                        OFFSET 27.185530 0.000000 0.000000
                        CHANNELS 3 Zrotation Xrotation Yrotation
                        JOINT LeftHand
                        {
                            OFFSET 27.825975 0.000000 0.000000
                            CHANNELS 3 Zrotation Xrotation Yrotation
                            End Site
                            {
                                OFFSET 13.236923 0.000000 0.000000
                            }
                        }
                    }
                }
            }
            JOINT RightShoulder
            {
                OFFSET -3.474926 18.396038 -0.314103
                CHANNELS 3 Zrotation Xrotation Yrotation
                JOINT RightArm
                {
                    OFFSET -10.880760 0.000000 0.000000
                    CHANNELS 3 Zrotation Xrotation Yrotation
                    JOINT RightForeArm
                    {
                        OFFSET -27.185530 0.000000 0.000000
                        CHANNELS 3 Zrotation Xrotation Yrotation
                        JOINT RightHand
                        {
                            OFFSET -27.825975 0.000000 0.000000
                            CHANNELS 3 Zrotation Xrotation Yrotation
                            End Site
                            {
                                OFFSET -13.236923 0.000000 0.000000
                            }
                        }
                    }
                }
            }
        }
    }
    JOINT LeftUpLeg
    {
        OFFSET 8.824615 0.000000 0.000000
        CHANNELS 3 Zrotation Xrotation Yrotation
        JOINT LeftLeg
        {
            OFFSET -0.000000 -35.111282 0.000000
            CHANNELS 3 Zrotation Xrotation Yrotation
            JOINT LeftFoot
            {
                OFFSET -0.000000 -42.324711 0.000000
                CHANNELS 3 Zrotation Xrotation Yrotation
                JOINT LeftToeBase
                {
                    OFFSET -0.000000 -5.735999 13.236923
                    CHANNELS 3 Zrotation Xrotation Yrotation
                    End Site
                    {
                        OFFSET -0.000000 0.000000 3.529846
                    }
                }
            }
        }
    }
    JOINT RightUpLeg
    {
        OFFSET -8.824615 0.000000 0.000000
        CHANNELS 3 Zrotation Xrotation Yrotation
        JOINT RightLeg
        {
            OFFSET -0.000000 -35.111282 0.000000
            CHANNELS 3 Zrotation Xrotation Yrotation
            JOINT RightFoot
            {
                OFFSET -0.000000 -42.324711 0.000000
                CHANNELS 3 Zrotation Xrotation Yrotation
                JOINT RightToeBase
                {
                    OFFSET -0.000000 -5.735999 13.236923
                    CHANNELS 3 Zrotation Xrotation Yrotation
                    End Site
                    {
                        OFFSET -0.000000 0.000000 3.529846
                    }
                }
            }
        }
    }
}
MOTION
Frames:    4
Frame Time:    0.008333
-5.859233    85.332527    101.135063    -0.051332    -5.873947    169.858185    -3.277398    -8.745521    -1.323689    4.036551    3.101639    -1.182434    3.722603    10.570816    1.891046    1.987087    6.914144    1.936156    22.822222    -8.207749    -7.372825    -2.890180    -4.699190    -14.074050    18.183685    -7.160976    -11.908291    -3.395706    -4.957459    -10.203761    -15.319831    0.130187    -6.462451    7.832009    -8.364561    5.986423    -19.933939    -18.473866    60.887890    0.812748    -6.888059    2.834407    6.237377    -5.887423    -0.528055    0.499099    14.982840    15.872038    -10.538587    -8.927972    -12.498056    -0.221678    -2.478120    0.246845    -7.185035    -6.722832    -3.189251    1.154157    10.395154    2.136499    5.818936    -3.472792    -7.744247    -2.667585    -2.428018    2.894937    
-5.723660    85.294754    101.104965    -0.172702    -5.871880    169.277756    -3.392928    -8.828904    -1.495792    4.029075    3.115486    -1.343511    3.782676    10.617608    2.244865    1.820851    6.928924    2.288876    22.629782    -8.342006    -7.459049    -2.929156    -5.929352    -14.743213    19.534216    -9.478687    -13.419285    -2.806316    -6.940273    -9.934509    -14.513995    0.524291    -6.648944    8.351797    -8.578004    5.745786    -20.330664    -18.246338    60.715946    -0.417423    -6.480760    2.979516    6.239135    -5.774403    -0.280523    0.455045    15.033791    16.265444    -10.641152    -8.917217    -12.568283    -0.213110    -2.533288    0.237328    -7.150001    -6.717928    -2.925697    1.132516    10.214736    2.312339    5.649281    -3.683138    -7.672035    -2.686518    -2.247564    2.914732    
-5.585369    85.257980    101.074684    -0.294425    -5.873260    168.722229    -3.496123    -8.913768    -1.679483    3.989309    3.132435    -1.516107    3.880260    10.634494    2.605083    1.633122    6.982901    2.642960    22.399197    -8.447184    -7.546436    -3.022184    -7.168043    -15.454537    20.845806    -11.898500    -15.005800    -2.167309    -8.989874    -9.556750    -13.677929    0.906851    -6.854369    8.889992    -8.779271    5.511966    -20.703592    -18.063883    60.543819    -1.627468    -6.139367    3.163348    6.241165    -5.678362    -0.040483    0.410847    15.098104    16.659857    -10.749106    -8.895050    -12.658207    -0.206299    -2.595454    0.229770    -7.114065    -6.714792    -2.631503    1.115347    10.042314    2.463877    5.477059    -3.893766    -7.624931    -2.703270    -2.070152    2.932163    
-5.448656    85.223862    101.045502    -0.410879    -5.876906    168.208038    -3.584214    -8.995357    -1.869978    3.922348    3.152146    -1.695964    4.012121    10.620892    2.961230    1.427479    7.075246    2.988168    22.137318    -8.523240    -7.633820    -3.166698    -8.381989    -16.187847    22.071638    -14.313206    -16.613674    -1.513167    -11.011771    -9.087478    -12.842813    1.263582    -7.070076    9.429253    -8.966176    5.297676    -21.044765    -17.916903    60.377853    -2.773250    -5.856585    3.370598    6.245366    -5.600042    0.182153    0.367710    15.172416    17.042164    -10.858576    -8.861746    -12.761089    -0.201830    -2.662356    0.224821    -7.076953    -6.713910    -2.314756    1.103170    9.885585    2.587177    5.309267    -4.095935    -7.604658    -2.717513    -1.902963    2.946913    
